# xmcd
# 
# Track frame offsets:
#     150
#     20359
#     39590
#     54654
#     72581
#     93056
#     112756
#     127357
#     143553
#     163682
#     185126
#     207523
# 
# Disc length: 3230
# 
# Revision: 1
# Processed by: cddbd v1.5.2PL0 Copyright (c) Steve Scherf et al.
# Submitted via: fre:ac v1.0.31
# 
DISCID=ae0c9c0c
DTITLE=Foghat - Under The Influence
DYEAR=2016
DGENRE=Rock/Pop
TTITLE0=Under The Influence
TTITLE1=Knock It Off
TTITLE2=Ghost
TTITLE3=She-s Got A Ring In His Nose
TTITLE4=Upside Of Lonely
TTITLE5=Heard It Through The Grapevine
TTITLE6=Made Up My Mind
TTITLE7=Hot Mama
TTITLE8=Heart Gone Cold
TTITLE9=Honey Do List
TTITLE10=All Because Of You
TTITLE11=Slow Ride
EXTD=
EXTT0=
EXTT1=
EXTT2=
EXTT3=
EXTT4=
EXTT5=
EXTT6=
EXTT7=
EXTT8=
EXTT9=
EXTT10=
EXTT11=
PLAYORDER=
